<svg xmlns:xlink="http://www.w3.org/1999/xlink" xmlns="http://www.w3.org/2000/svg" id="electronics_svg__Layer_1" x="0" y="0" viewBox="0 0 800 800" xmlSpace="preserve" class="svg-wrapper--8ky9e" width="800"  height="800" ><style fill="#FFFFFF">.electronics_svg__st0{fill:#536679}</style><path class="electronics_svg__st0" d="M758.05 577.35H41.95c-15.69 0-28.42-12.72-28.42-28.42v-423.9c0-15.69 12.72-28.42 28.42-28.42h716.11c15.69 0 28.42 12.72 28.42 28.42v423.9c-.01 15.69-12.73 28.42-28.43 28.42zM663.98 703.39H133.03c-12.34 0-22.34-10-22.34-22.34v-4.69c0-12.34 10-22.34 22.34-22.34h530.96c12.34 0 22.34 10 22.34 22.34v4.69c-.01 12.34-10.01 22.34-22.35 22.34z" fill="#536679"></path><path class="electronics_svg__st0" d="M350.62 577.35h95.78v76.67h-95.78z" fill="#536679"></path><defs><path id="electronics_svg__SVGID_1_" d="M722.38 530.1H77.62c-9.31 0-16.85-7.54-16.85-16.85V160.71c0-9.31 7.55-16.85 16.85-16.85h644.76c9.31 0 16.85 7.54 16.85 16.85v352.55c0 9.3-7.55 16.84-16.85 16.84z"></path><path id="electronics_svg__SVGID_1_" d="M722.38 530.1H77.62c-9.31 0-16.85-7.54-16.85-16.85V160.71c0-9.31 7.55-16.85 16.85-16.85h644.76c9.31 0 16.85 7.54 16.85 16.85v352.55c0 9.3-7.55 16.84-16.85 16.84z"></path></defs><clipPath id="electronics_svg__SVGID_00000136404496006715090300000016831137778417674899_" fill="#FFFFFF"><use xlink:href="#electronics_svg__SVGID_1_" overflow="visible" fill="#FFFFFF"></use></clipPath><path clip-path="url(#electronics_svg__SVGID_00000136404496006715090300000016831137778417674899_)" fill="#F2F0E5" d="M45.53 138.36h708.93V535.6H45.53z"></path><path clip-path="url(#electronics_svg__SVGID_00000136404496006715090300000016831137778417674899_)" fill="#E4E3D7" d="M754.47 138.36V535.6H45.53"></path></svg>